<?xml version="1.0" encoding="utf-8"?>
<!-- Uploaded to SVGRepo https://www.svgrepo.com -->
<!-- https://css-tricks.com/svg-path-syntax-illustrated-guide/ -->
<!-- https://css-tricks.com/transforms-on-svg-elements/ -->
<svg version="1.2" baseProfile="tiny" id="Layer_1" xmlns="http://www.w3.org/2000/svg"
	xmlns:xlink="http://www.w3.org/1999/xlink" x="0px" y="0px" viewBox="0 0 207.3 256" xml:space="preserve">
	<g color="orange">
		<path fill="none"
			d="M45,122c-5.2,0-9.5,4.3-9.5,9.5c0,5.3,4.3,9.6,9.5,9.6c5.3,0,9.6-4.3,9.6-9.6C54.5,126.3,50.2,122,45,122z" />
		<path fill="none" d="
			M122.7,91.1
			c0.5,1.4,1.3,1.8,2.8,1.3
			c1.6-0.5,2.7-1.3,3.7-2.2l-1-3l-3.8,1.3
			C122.8,89.1,122.3,89.7,122.7,91.1
			z" />
		<path d="
			M133.9,26.2
			c0.4,0,0.9-0.1,1.3-0.3
			c1.6-0.7,2.4-2.6,1.6-4.3
			c-0.7-1.6-2.7-2.4-4.3-1.6
			c-1.6,0.7-2.4,2.6-1.6,4.3
			C131.5,25.4,132.7,26.2,133.9,26.2
			z" />
		<path d="
			M123.6,32.6
			c0.7,0,1.5-0.3,2.1-0.8
			c1.4-1.1,1.6-3.2,0.4-4.6
			c-1.1-1.4-3.2-1.6-4.6-0.4
			c-1.4,1.2-1.6,3.2-0.4,4.6
			C121.8,32.2,122.7,32.6,123.6,32.6
			z" />
		<path d="
			M151.4,22.5
			c0.9,0,1.7-0.3,2.3-1
			c0.6-0.6,0.9-1.4,0.9-2.3
			c0-0.9-0.3-1.7-0.9-2.3
			c-0.6-0.6-1.4-1-2.3-1
			c-0.9,0-1.7,0.3-2.3,1
			c-0.6,0.6-0.9,1.4-0.9,2.3
			c0,0.9,0.3,1.7,0.9,2.3
			C149.7,22.2,150.5,22.5,151.4,22.5
			z" />
		<path fill-opacity="0.5" d="
			M113.5,41
			c0.6,0.4,1.2,0.6,1.9,0.6
			c1,0,2-0.5,2.7-1.4
			c1-1.5,0.7-3.5-0.8-4.5
			c-1.5-1-3.5-0.7-4.5,0.8
			C111.7,37.9,112,39.9,113.5,41
			z" />
		<path fill="currentcolor" d="
			M134.1,40.9
			v10.9
			c29,9.9,49.9,37.4,49.9,69.8
			c0,18.8-7.2,36-18.8,49.1
			c0,0,3.4-39.3-43-39.3
			c-66.7-1.5-65.9-60.3-65.9-60.3
		
			c9.4-10,21.5-17.4,35.2-20.9V39.3
			c-31.4,7.1-57.8,32.1-64,59
			c-1.7,7.2-3.5,25.8-3.5,25.8
			L6.2,169
			c-0.3,0.9-0.5,1.7-0.5,2.7
		
			c0,3.8,3.1,6.9,6.9,6.9
			h11.4
			v23.9
			c0,18.6,15,33.6,33.6,33.6
			H71
			v16.2
			h91.1
			v-62.5
			c19.9-15.6,32.7-39.9,32.7-67.1
			C194.7,84,169.1,51.5,134.1,40.9
			z 

			M45,141
			c-5.2,0-9.5-4.3-9.5-9.6
			c0-5.2,4.3-9.5,9.5-9.5
			c5.3,0,9.6,4.3,9.6,9.5
			C54.5,136.7,50.2,141,45,141
			z" />
		<path fill-opacity="0.2" d="
			M108.5,52.1
			c0.4,0.1,0.8,0.2,1.2,0.2
			c1.3,0,2.5-0.8,3-2.1
			c0.6-1.7-0.2-3.5-1.9-4.2
			c-1.7-0.6-3.6,0.2-4.2,1.9
			C106,49.6,106.8,51.4,108.5,52.1
			z" />

		<!--
		<path d="
			M150,140
			l12.5-34
			l-8.3-6.3
			l-29.4,21.2
			l6.5,4.9
			l5.6-4.3
			l9.2,7
			l-2.6,6.5
			L156.9,130.5
			z 

			M149.2,108
			l12-9.1
			l-5.6,14
			L149.2,108
			z" />
		-->
		<rect stroke="green" fill="none" x="150" y="130" with="100" height="80" transform="
				rotate(-5 200 170)
			" />

		<path stroke="blue" fill="purple"
			fill-opacity="0.3" stroke-opacity="0.2"
			d="
			M150,135
			l0,-20
			l-30,0
			l0,20
			z" transform="
				skewX(5)
				rotate(-5)
			" />
		<path stroke="red" fill="skyblue"
			fill-opacity="0.5" stroke-opacity="0.5"
			d="
			M110,110
			m10,10
			l0,-20
			l-20,0
			l0,20
			z" transform-origin="110 115" transform="
				scale(1, 1.3)
				rotate(15)
				skewX(30)
			" />

		<path fill-opacity="0.15" d="
			M113,81.1
			c2.4-1.3,4.6-2.4,7-3.2
			c4.2-1.4,5-0.7,5.9,2
			l0.7,2
			l-5.7,1.9
			c-5.5,1.8-7.2,4.7-5.5,9.9
			c1.5,4.4,4.7,7.2,9.6,5.6
			c1.8-0.6,4.4-2,6.9-4.7
			l1.1,1.5
			l6.4-2.2
			l-5.5-16.6
			c-2.4-7.2-5.3-9.2-14.5-6.1
			c-3.1,1-6.9,2.9-9.1,4.5
			L113,81.1
			z 
		
			M129.2,90.2
			c-1,0.9-2,1.7-3.7,2.2
			c-1.5,0.5-2.3,0.1-2.8-1.3
			c-0.5-1.4,0-2.1,1.7-2.6
			l3.8-1.3
			L129.2,90.2
			z" />
		<path fill-opacity="0.15" d="
			M105.9,105.1
			l8.5-2.8
			l-23-31.7
			l-10.9,3.6
			l0.8,39.2
			l8.5-2.8
			l-0.3-7.6
			l12.2-4.1
			L105.9,105.1
			z
			M89.1,95.6
			l-0.8-16.3
			l9.1,13.5
			L89.1,95.6
			z" />
		<rect x="153" y="50" rx="1" fill="antiquewhite" stroke="red"
			width="10" height="10"
			transform-origin="158 55"
			transform="
				rotate(0)
				scale(5 8)
			"
			/>
		<text x="140" y="45" style="font-size:15px" stroke="darkorange" fill="darkorange"
		>Your</text>
		<text x="140" y="60" style="font-size:15px" stroke="darkorange" fill="darkorange"
		>pages</text>
	</g>
</svg>