<?xml version="1.0" encoding="utf-8"?>
<!-- Uploaded to SVGRepo https://www.svgrepo.com -->
<!-- https://css-tricks.com/svg-path-syntax-illustrated-guide/ -->
<!-- https://css-tricks.com/transforms-on-svg-elements/ -->
<svg version="1.2" baseProfile="tiny" id="Layer_1" xmlns="http://www.w3.org/2000/svg"
	xmlns:xlink="http://www.w3.org/1999/xlink" x="0px" y="0px" viewBox="0 0 207.3 256" xml:space="preserve">
	<g color="saddlebrown">
		<path fill="currentcolor" d="
			M134.1,40.9
			v10.9
			c29,9.9,49.9,37.4,49.9,69.8
			c0,18.8-7.2,36-18.8,49.1
			c0,0,3.4-39.3-43-39.3
			c-66.7-1.5-65.9-60.3-65.9-60.3
		
			c9.4-10,21.5-17.4,35.2-20.9V39.3
			c-31.4,7.1-57.8,32.1-64,59
			c-1.7,7.2-3.5,25.8-3.5,25.8
			L6.2,169
			c-0.3,0.9-0.5,1.7-0.5,2.7
		
			c0,3.8,3.1,6.9,6.9,6.9
			h11.4
			v23.9
			c0,18.6,15,33.6,33.6,33.6
			H71
			v16.2
			h91.1
			v-62.5
			c19.9-15.6,32.7-39.9,32.7-67.1
			C194.7,84,169.1,51.5,134.1,40.9
			z 

			M45,141
			c-5.2,0-9.5-4.3-9.5-9.6
			c0-5.2,4.3-9.5,9.5-9.5
			c5.3,0,9.6,4.3,9.6,9.5
			C54.5,136.7,50.2,141,45,141
			z" />
		<g transform="translate(70, 65)">
			<rect x="0" y="0" fill="lightskyblue"
			width="94" height="50"
			rx="15%"
			/>
			<text x="14" y="35"
				font-size="33px" font-family="Verdana"
				stroke="black" stroke-width="2"
				>
				Map
			</text>
		</g>
	</g>
</svg>